<?xml version="1.0" encoding="UTF-8" standalone="no"?>
<svg
   xmlns:dc="http://purl.org/dc/elements/1.1/"
   xmlns:cc="http://creativecommons.org/ns#"
   xmlns:rdf="http://www.w3.org/1999/02/22-rdf-syntax-ns#"
   xmlns:svg="http://www.w3.org/2000/svg"
   xmlns="http://www.w3.org/2000/svg"
   xmlns:sodipodi="http://sodipodi.sourceforge.net/DTD/sodipodi-0.dtd"
   xmlns:inkscape="http://www.inkscape.org/namespaces/inkscape"
   version="1.1"
   viewBox="0 0 744.09449 1052.3622"
   width="210mm"
   sodipodi:docname="woman.svg"
   inkscape:version="0.91 r13725"
   height="100%">
  <sodipodi:namedview
     pagecolor="#ffffff"
     bordercolor="#666666"
     borderopacity="1"
     objecttolerance="10"
     gridtolerance="10"
     guidetolerance="10"
     inkscape:pageopacity="0"
     inkscape:pageshadow="2"
     inkscape:window-width="1400"
     inkscape:window-height="994"
     id="namedview77"
     showgrid="false"
     inkscape:zoom="0.22425739"
     inkscape:cx="263.94867"
     inkscape:cy="-10.679094"
     inkscape:window-x="0"
     inkscape:window-y="0"
     inkscape:window-maximized="1"
     width="744.09449px"
     showborder="false" />
  <defs
     id="defs4113" />
  <metadata
     id="metadata4116">
    <rdf:RDF>
      <cc:Work
         rdf:about="">
        <dc:format>image/svg+xml</dc:format>
        <dc:type
           rdf:resource="http://purl.org/dc/dcmitype/StillImage" />
        <dc:title></dc:title>
      </cc:Work>
    </rdf:RDF>
  </metadata>
  <g
     id="layer1">
    <g
       id="woman">
      <path
         style="fill:#868686;stroke:#000000;stroke-width:1.34638727;stroke-miterlimit:10"
         id="path33"
         d="m 589.37367,506.18806 c -9.36466,-5.8513 -17.56126,-15.21597 -26.92592,-16.38586 -17.55942,-2.34345 -19.89922,-14.04791 -23.41256,-26.92957 -9.36466,-32.77357 -15.21963,-67.89608 -26.92592,-99.50524 -17.56125,-46.82879 -26.92408,-94.82382 -31.60916,-142.82617 -2.34161,-21.06911 -16.38953,-32.77723 -33.94895,-40.97383 -12.878,-5.85315 -25.75601,-10.53456 -38.63586,-16.38771 -12.87434,-5.85314 -16.3877,-17.55942 -11.70811,-30.43744 3.51334,-10.53638 10.53822,-21.07093 14.05156,-31.60732 9.361,-24.584293 15.21781,-51.510209 3.5097,-76.0945 C 404.40561,6.3110986 388.01608,0.4561265 369.28311,0.4561265 l 0,0 0,0 0,0 0,0 c -18.73116,0 -35.12068,4.6832451 -44.48717,24.5842935 -11.70814,25.756019 -5.85316,51.510207 3.51334,76.0945 3.51152,10.53639 10.53456,21.07094 14.0479,31.60732 4.68508,12.87802 0,23.41441 -11.70994,30.43744 -12.87252,5.85315 -25.75237,11.70812 -38.63038,16.38771 -18.73115,8.1966 -32.77905,19.90472 -33.95261,40.97383 -4.68141,49.17041 -14.04607,97.1691 -31.60367,142.82617 -11.70811,31.60916 -18.73299,66.72984 -26.92592,99.50524 -3.51518,12.88166 -5.85497,24.58612 -23.41623,26.92957 -9.36649,1.17172 -17.55942,10.53456 -26.92775,16.38586 -1.16806,1.17173 -1.16806,3.51336 -1.16806,3.51336 0,1.17172 2.3398,1.17172 3.51153,1.17172 7.02486,-1.17172 12.87801,-2.34345 22.24266,-3.51335 -7.02669,18.73116 -12.87801,36.29057 -18.73114,52.68194 0,1.16989 1.17355,2.33979 1.17355,2.33979 1.17173,0 2.33979,0 3.51151,-1.17172 3.51152,-4.68326 8.19477,-11.70629 14.04792,-18.7275 0,12.87435 -3.51336,33.94713 0,33.94713 7.02121,1.17355 9.36466,-31.60733 10.53455,-30.43744 2.34163,-1.16989 1.17356,28.09764 3.51335,28.09764 4.68141,0 7.02487,-29.26571 9.36466,-26.92591 3.51335,8.19476 2.34345,21.07277 5.85497,22.24267 1.16989,2.33979 3.50969,-14.04974 3.50969,-21.07277 4.68324,-28.09765 9.36466,-53.85183 21.07094,-80.77775 17.56492,-37.45864 30.43744,-77.2644 44.49083,-117.06833 5.85132,-15.21779 11.70629,-30.4356 17.55942,-45.65706 2.3398,0 4.68325,1.17356 7.02305,1.17356 1.17172,24.58429 4.68324,50.33665 1.17172,74.92277 -4.68324,32.77723 -15.21963,65.55994 -24.58612,98.33717 -17.55942,56.19345 -11.70812,111.21152 3.51334,167.40863 9.36467,33.94712 15.21964,69.06597 7.02488,104.18299 -3.51336,15.22146 -3.51336,14.05157 -3.51336,29.26571 0,-3.50786 -1.17172,8.19842 0,4.68324 l 0,0 0,1.17356 c 2.34163,45.65707 5.85315,91.3123 8.1966,136.96936 1.17173,30.43927 9.36466,63.21467 -12.87984,90.14603 -16.38769,19.8974 -15.21597,22.239 7.02669,33.9489 2.3398,1.1736 5.85315,3.5116 9.36467,3.5116 3.51152,0 5.85314,-1.1754 8.19477,-3.5116 14.0479,-18.7311 25.7542,-37.4641 23.41441,-62.05199 -1.17173,-15.21597 0,-30.43378 2.33979,-45.65157 4.68141,-52.68011 19.90288,-105.36387 17.56126,-159.21753 l 0,0 -1.17174,-11.70629 c 0,-3.50969 0,-8.1911 1.17174,-11.70811 7.02303,-72.57749 12.87618,-146.32854 19.90287,-218.91152 1.17173,-5.85314 2.33797,-12.878 4.68142,-18.72931 l 0,0 0,0 0,0 0,0 0,0 0,0 c 1.17172,5.85131 3.51152,12.87617 4.68141,18.72931 7.02671,72.58481 12.87984,146.33586 19.90472,218.91152 0,3.51701 1.17171,8.19842 1.17171,11.70811 l -1.17171,11.70629 0,0 c -3.51336,53.85366 11.70811,106.53559 17.56124,159.21753 1.16807,15.21779 3.50969,30.4356 2.3398,45.65157 -2.3398,24.58789 9.36649,43.31909 23.41256,62.05199 2.34345,2.3362 5.85132,3.5116 8.1966,3.5116 2.34162,0 7.0267,-2.338 9.36283,-3.5116 22.2445,-11.7099 23.41439,-14.0515 7.02487,-33.9489 -22.23901,-28.10309 -14.04608,-59.70676 -12.87801,-90.14603 2.34345,-45.65706 7.02669,-91.31229 8.19842,-136.96936 l 0,-1.17356 0,0 c 0,3.51518 -1.17173,-8.1911 0,-4.68324 -1.17173,-15.21598 0,-14.04425 -3.51334,-29.26571 -8.19477,-35.11885 -2.3398,-70.23587 7.02304,-104.18299 15.21963,-55.02539 19.90287,-111.21518 3.51151,-167.40863 -9.36466,-31.60733 -19.89921,-64.38821 -24.58063,-98.33717 -3.51518,-24.58612 0,-50.33848 1.17172,-74.92277 2.33614,0 4.68142,-1.17356 7.02304,-1.17356 5.85132,15.21964 11.70629,30.43927 17.55943,45.65706 15.21962,38.63587 28.09764,78.43613 44.489,117.06833 11.70262,25.75602 16.3877,52.6801 21.07093,80.77775 0,7.02303 2.3398,23.41256 5.85132,22.24084 3.51335,-1.16991 3.51335,-14.04792 5.85497,-22.24084 2.33796,-2.34163 4.68141,26.9259 9.36466,26.9259 3.51335,0 1.16807,-29.26753 3.51335,-28.09764 1.16807,-1.17172 4.68141,30.43927 10.53455,30.43927 3.51152,0 0,-22.2445 0,-33.95261 5.85315,7.02486 10.5364,15.21963 14.04792,18.73115 1.17172,1.17172 2.33978,1.17172 3.51152,1.17172 1.17172,0 2.34345,-1.17172 1.17172,-2.34161 -5.85315,-16.3877 -11.70812,-33.94713 -18.72932,-52.68194 9.36649,1.17356 16.38769,2.34345 22.24267,3.51334 1.17172,0 2.33979,0 3.51152,-1.16989 0,-1.16989 0,-3.51152 -1.17356,-4.68325 z"
         stroke-miterlimit="10"
         inkscape:connector-curvature="0" />
      <g
         transform="matrix(1.8308231,0,0,1.8308231,-952.2709,-155.47142)"
         id="g35">
        <g
           id="g37" class="respiratorio">
          <path
             style="fill:#d9d9d9;stroke:#000000;stroke-width:0.73540002;stroke-miterlimit:10"
             id="path39"
             d="m 736.759,201.618 c -5.743,-8.386 -9.763,-8.909 -9.763,-2.271 0,4.286 0,13.815 10e-4,20.029 -1.392,-1.564 -3.697,-4.451 -3.697,-6.403 0,-2.795 0,-4.717 0,-4.717 l -2.098,0 -2.097,0 c 0,0 0,1.92 0,4.717 0,1.423 -1.226,3.342 -2.429,4.885 10e-4,-6.159 10e-4,-14.562 10e-4,-18.511 0,-6.638 -4.021,-6.114 -9.764,2.271 -5.743,8.384 -16.769,30.395 -15.714,48.563 1.055,18.168 9.053,20.963 10.776,17.994 1.722,-2.969 5.053,-4.543 9.991,-5.591 4.938,-1.049 4.709,-8.56 4.709,-13.975 0,-4.886 0,-19.998 0,-22.914 1.614,-3.593 3.637,-7.656 4.525,-7.656 1.152,0 4.189,6.783 5.795,10.563 0,5.486 0,16.069 0,20.007 0,5.415 -0.229,12.926 4.708,13.975 4.94,1.049 8.27,2.622 9.992,5.591 1.724,2.969 9.722,0.174 10.776,-17.994 1.055,-18.168 -9.97,-40.178 -15.712,-48.563 z"
             stroke-miterlimit="10"
             inkscape:connector-curvature="0" />
        </g>
        <g
           id="g41">
          <rect
             style="fill:#d9d9d9;stroke:#000000;stroke-width:0.73540002;stroke-miterlimit:10"
             id="rect43"
             height="2.3310001"
             width="4.1919999"
             stroke-miterlimit="10"
             y="203.595"
             x="719.10498" />
        </g>
        <g
           id="g45">
          <rect
             style="fill:#d9d9d9;stroke:#000000;stroke-width:0.73540002;stroke-miterlimit:10"
             id="rect47"
             height="2.3310001"
             width="4.1919999"
             stroke-miterlimit="10"
             y="198.935"
             x="719.10498" />
        </g>
        <g
           id="g49">
          <rect
             style="fill:#d9d9d9;stroke:#000000;stroke-width:0.73540002;stroke-miterlimit:10"
             id="rect51"
             height="2.3310001"
             width="4.1919999"
             stroke-miterlimit="10"
             y="194.274"
             x="719.10498" />
        </g>
        <g
           id="g53">
          <rect
             style="fill:#d9d9d9;stroke:#000000;stroke-width:0.73540002;stroke-miterlimit:10"
             id="rect55"
             height="2.3310001"
             width="4.1919999"
             stroke-miterlimit="10"
             y="189.61301"
             x="719.10498" />
        </g>
        <g
           id="g57">
          <rect
             style="fill:#d9d9d9;stroke:#000000;stroke-width:0.73540002;stroke-miterlimit:10"
             id="rect59"
             height="2.3299999"
             width="4.1919999"
             stroke-miterlimit="10"
             y="184.953"
             x="719.10498" />
        </g>
      </g>
      <g
         transform="matrix(1.8308231,0,0,1.8308231,-952.2709,-155.47142)"
         id="g61" class="corazon">
        <path
           style="fill:#000100"
           id="path63"
           d="m 746.021,241.383 c -2.748,-0.799 -5.15,-2.203 -7.896,-3.003 -1.407,0.527 -2.957,1.801 -2.744,2.79 0.721,0.338 1.439,0.591 0.771,1.625 -0.948,1.599 -1.897,3.195 -2.847,4.795 -1.484,0.488 -1.583,-0.061 -0.3,-1.649 1.203,-1.536 1.252,-2.468 0.149,-1.93 -0.809,0.063 -1.419,0.18 -1.309,-0.679 1.872,-4.137 4.33,-5.258 6.508,-6.602 2.629,-0.767 1.826,-2.295 -0.293,-2.909 -6.04,2.549 -9.108,6.887 -11.01,11.284 -1.299,-0.149 -2.338,-0.214 -3.637,-0.363 0.05,-1.696 0.101,-3.396 0.15,-5.095 -2.021,-1.441 -3.032,-0.653 -3.897,0.448 -0.043,10.78 -1.926,11.421 -3.446,14.086 -0.31,1.608 0.605,1.946 2.831,1.709 1.926,-1.628 2.92,-2.976 3.464,-5.753 0.223,-1.638 1.022,-2.236 2.397,-1.798 1.058,0.218 1.307,0.669 0.749,1.349 -4.071,6.028 1.364,10.556 2.837,13.515 3.696,4.075 8.345,3.211 12.04,-3.775 3.298,-5.18 4.593,-10.336 -0.9,-13.873 -0.899,1.248 -1.711,2.671 -2.61,3.919 -1.156,0.313 -1.505,-0.011 -1.048,-0.62 1.298,-1.85 2.423,-4.13 3.723,-5.979 1.499,0.399 2.997,1.146 4.495,1.546 1.977,-0.063 2.384,-1.134 1.823,-3.038 z"
           inkscape:connector-curvature="0" />
        <path
           style="fill:#000100"
           id="path65"
           d="m 729.946,237.786 c 0.698,-0.7 1.744,-1.571 2.444,-2.271 -0.371,-0.945 -1.402,-1.458 -2.232,-1.712 -1.454,0.633 -2.104,1.385 -1.948,2.248 -0.025,0.78 0.611,1.416 1.736,1.735 z"
           inkscape:connector-curvature="0" />
      </g>
      <g
         transform="matrix(1.8308231,0,0,1.8308231,-952.2709,-155.47142)"
         id="g67" class="arterias">
        <g
           id="g69">
          <path
             style="fill:#000100"
             id="path71"
             d="m 761.006,194.264 c 0.298,-0.238 0.594,-0.238 0.891,-0.238 0.295,0 0.667,0 0.963,0.238 0.593,0.239 1.186,0.95 1.778,1.661 1.111,1.658 2.075,4.028 2.966,6.637 0.89,2.605 1.629,5.45 2.371,8.532 0.741,3.083 1.408,6.163 2.001,9.481 2.521,12.798 4.448,26.784 7.115,39.108 0.668,3.083 1.407,5.927 2.149,8.771 0.815,2.606 1.705,5.216 2.668,7.11 1.927,4.032 4.225,6.165 6.522,8.06 1.111,0.949 2.298,2.132 3.41,3.318 1.11,1.422 2.223,3.08 3.187,4.979 2.002,4.027 3.632,9.953 4.743,16.826 l 0,0 0,0 c 0,1.659 0,3.318 0.074,4.979 0.075,1.655 0.148,3.316 0.298,4.977 0.296,3.317 0.74,6.397 1.259,9.244 0.593,2.844 1.26,5.45 2.149,7.347 0.889,1.895 1.854,3.316 2.817,4.505 0.962,1.183 2,2.133 2.963,3.555 0.964,1.422 1.854,3.08 2.669,5.449 1.631,4.506 2.892,9.957 3.855,16.12 -0.964,-5.927 -2.225,-11.614 -3.855,-15.881 -0.815,-2.133 -1.705,-4.03 -2.669,-5.216 -0.963,-1.422 -2.001,-2.133 -2.963,-3.316 -0.964,-1.186 -2.003,-2.372 -2.893,-4.503 -0.889,-1.898 -1.63,-4.505 -2.223,-7.349 -0.593,-2.845 -1.037,-5.927 -1.333,-9.243 -0.149,-1.661 -0.223,-3.322 -0.298,-4.978 -0.073,-2.135 -0.073,-3.793 -0.073,-5.453 l 0,0.238 c -1.111,-6.638 -2.668,-12.325 -4.67,-16.357 -0.964,-1.895 -2.075,-3.555 -3.112,-4.976 -1.112,-1.186 -2.225,-2.371 -3.336,-3.317 -2.298,-1.897 -4.596,-4.031 -6.67,-8.06 -2.076,-4.03 -3.633,-9.955 -5.041,-16.118 -2.741,-12.325 -4.743,-26.312 -7.189,-38.872 -0.593,-3.081 -1.259,-6.163 -2.001,-9.245 -0.74,-2.844 -1.481,-5.688 -2.297,-8.294 -0.815,-2.371 -1.779,-4.743 -2.816,-6.164 -0.52,-0.712 -1.038,-1.184 -1.631,-1.422 -0.298,-0.237 -0.52,0 -0.815,-0.237 -0.297,0.237 -0.593,0.237 -0.889,0.237 l 0,0 c -0.223,0 -0.371,-0.473 -0.371,-1.184 -0.073,-0.474 0.074,-0.949 0.297,-0.949 l 0,0 z"
             inkscape:connector-curvature="0" />
        </g>
        <g
           id="g73">
          <path
             style="fill:#000100"
             id="path75"
             d="m 765.928,198.085 c 0,0 0.132,0.324 0.294,0.863 0.133,0.32 0.396,0.973 0.79,1.413 0.396,0.442 0.861,0.252 1.491,0.068 0.599,-0.394 1.462,-0.674 2.254,0.211 0.792,0.886 1.546,2.615 2.198,4.766 0.654,2.152 1.24,4.404 1.825,7.188 1.136,5.354 2.104,11.229 3.206,16.898 0.517,2.886 1.167,5.566 1.75,8.348 0.585,2.784 1.17,5.568 1.521,8.446 0.226,1.494 0.284,2.982 0.412,4.365 0.126,1.385 0.386,2.564 0.713,3.637 0.688,1.835 1.615,1.984 2.347,1.382 3.09,-1.34 5.149,-2.413 5.149,-2.413 0,0 -2.06,1.073 -5.184,2.73 -0.731,0.603 -1.727,0.554 -2.446,-1.492 -0.395,-0.973 -0.587,-2.252 -0.813,-3.747 -0.157,-1.596 -0.284,-2.981 -0.477,-4.263 -0.352,-2.879 -0.937,-5.663 -1.555,-8.13 -0.65,-2.68 -1.235,-5.463 -1.818,-8.246 -1.102,-5.669 -2.137,-11.442 -3.24,-16.582 -0.553,-2.571 -1.205,-4.72 -1.826,-6.657 -0.622,-1.936 -1.344,-3.455 -2.003,-4.014 -0.694,-0.775 -1.359,-0.275 -1.99,-0.092 -0.599,0.395 -1.229,0.579 -1.789,0.129 -0.562,-0.449 -0.857,-1.312 -1.087,-1.748 -0.163,-0.536 -0.296,-0.862 -0.296,-0.862 -0.163,-0.537 -0.16,-1.065 -0.024,-1.803 0.136,-0.734 0.368,-0.831 0.598,-0.395 -0.067,0.101 -0.067,0.101 0,0 z"
             inkscape:connector-curvature="0" />
        </g>
        <g
           id="g77">
          <path
             style="fill:#000100"
             id="path79"
             d="m 772.369,203.154 c 0,0 0.165,0.007 0.331,0.014 0.233,-0.096 0.663,0.032 1.06,0.473 0.463,0.339 0.957,0.894 1.516,1.874 0.56,0.979 1.084,2.279 1.641,3.788 1.146,3.233 2.22,7.627 3.024,12.967 0.804,5.339 1.374,11.302 2.513,16.122 0.553,2.572 1.14,4.826 1.757,7.292 0.619,2.467 1.206,4.721 1.726,7.076 1.173,4.509 2.214,8.688 3.094,12.334 0.455,1.931 0.846,3.431 1.237,4.936 0.391,1.503 0.784,2.474 1.181,2.918 0.396,0.439 0.796,-0.176 0.864,-0.808 0.069,-0.633 0.071,-1.166 0.071,-1.166 0,0 -0.002,0.533 -0.071,1.166 -0.068,0.632 -0.437,1.462 -0.864,0.808 -0.396,-0.444 -0.822,-1.629 -1.181,-2.918 -0.392,-1.505 -0.782,-3.005 -1.306,-4.83 -0.945,-3.544 -2.054,-7.623 -3.227,-12.131 -0.586,-2.254 -1.172,-4.506 -1.791,-6.975 -0.586,-2.252 -1.271,-4.615 -1.824,-7.187 -0.619,-2.467 -1.036,-5.243 -1.455,-8.018 -0.419,-2.776 -0.771,-5.654 -1.223,-8.113 -0.839,-5.021 -1.882,-9.203 -2.995,-12.223 -0.557,-1.512 -1.049,-2.595 -1.575,-3.36 -0.528,-0.767 -0.955,-1.424 -1.319,-1.652 -0.363,-0.23 -0.629,-0.346 -0.86,-0.253 -0.233,0.096 -0.331,-0.014 -0.331,-0.014 -0.233,0.097 -0.396,-0.443 -0.395,-0.972 0.002,-0.531 0.17,-1.054 0.402,-1.148 l 0,0 z"
             inkscape:connector-curvature="0" />
        </g>
      </g>
      <g
         transform="matrix(1.8308231,0,0,1.8308231,-952.2709,-155.47142)"
         id="g81" class="feto">
        <path
           style="fill:#000100"
           id="path83"
           d="m 737.866,307.73 c -4.084,-2.66 -9.59,-1.468 -12.252,2.615 -2.157,3.352 -1.79,7.619 0.688,10.51 -0.046,0 -0.092,0 -0.138,0 l -5.874,0.459 -1.697,-5.875 c -0.229,-0.962 -1.24,-1.56 -2.203,-1.284 -0.871,0.276 -1.331,1.194 -1.147,2.064 0.414,1.882 1.377,6.195 1.79,8.261 0.138,0.688 0.551,1.284 1.148,1.651 0.229,0.183 0.55,0.23 0.825,0.23 l 1.514,-0.139 -2.478,3.809 -0.964,-2.706 c -0.138,-0.368 -0.368,-0.689 -0.688,-0.874 -0.733,-0.458 -1.652,-0.642 -2.478,-0.458 -2.524,0.55 -7.985,1.698 -10.324,2.158 -1.102,0.229 -1.928,1.238 -1.79,2.34 0.138,1.284 1.33,2.111 2.569,1.881 l 7.571,-1.055 2.432,6.653 c 0,0 0.551,1.331 2.708,2.891 4.13,3.028 9.912,1.881 12.711,-2.433 l 2.845,-4.404 c 2.157,-3.304 1.561,-7.573 -1.147,-10.233 3.396,0.597 6.976,-0.827 8.948,-3.9 2.709,-3.992 1.515,-9.499 -2.569,-12.161 z"
           inkscape:connector-curvature="0" />
        <path
           style="fill:#000100"
           id="path85"
           d="m 720.108,314.201 c -0.139,0.505 -0.321,1.192 -0.551,1.974 l 1.238,4.358 1.515,-0.136 1.101,-5.37 c 0.275,-0.964 -0.366,-1.974 -1.376,-2.157 -0.872,-0.092 -1.698,0.506 -1.927,1.331 z"
           inkscape:connector-curvature="0" />
        <path
           style="fill:#000100"
           id="path87"
           d="m 705.561,333.107 c -0.045,0.183 -0.045,0.366 -0.045,0.55 0.092,1.01 1.055,1.698 2.064,1.515 l 4.727,-0.688 -0.779,-2.248 -5.967,0.871 z"
           inkscape:connector-curvature="0" />
        <path
           style="fill:#000100"
           id="path89"
           d="m 710.977,313.192 c -0.367,0.459 -0.78,0.825 -1.239,1.193 0.826,0.274 1.651,0.87 2.11,1.927 0.597,-0.413 1.193,-0.919 1.698,-1.561 -0.505,-1.513 -1.882,-1.605 -2.569,-1.559 z"
           inkscape:connector-curvature="0" />
        <path
           style="fill:#000100"
           id="path91"
           d="m 709.646,318.285 c 0.138,-0.597 0.551,-1.056 1.146,-1.468 -0.596,-1.286 -1.835,-1.562 -2.524,-1.606 -1.101,0.872 -1.605,1.881 -1.788,2.891 0.871,-0.185 1.926,-0.231 3.166,0.183 z"
           inkscape:connector-curvature="0" />
        <path
           style="fill:#000100"
           id="path93"
           d="m 707.626,322.415 c 0.642,-0.642 1.605,-1.284 2.892,-1.284 -0.367,-0.598 -0.644,-1.102 -0.78,-1.562 -1.47,-0.688 -2.57,-0.458 -3.258,-0.182 0,0.228 0.045,0.504 0.045,0.733 0.045,0.69 0.505,1.515 1.101,2.295 z"
           inkscape:connector-curvature="0" />
        <path
           style="fill:#000100"
           id="path95"
           d="m 711.756,312.044 c 0.964,0.093 1.974,0.552 2.615,1.653 0.367,-0.505 0.643,-0.964 0.918,-1.423 0.505,-0.873 0.092,-1.973 -0.826,-2.295 l 0,0 c -0.825,-0.321 -1.697,0.092 -2.064,0.872 -0.184,0.367 -0.368,0.781 -0.643,1.193 z"
           inkscape:connector-curvature="0" />
        <path
           style="fill:#000100"
           id="path97"
           d="m 711.527,322.507 c -1.653,-0.596 -2.754,0.276 -3.213,0.826 0.779,0.964 1.605,1.743 1.928,2.065 0.092,0.092 0.229,0.137 0.367,0.137 l 2.479,-0.367 c 0.366,-0.046 0.504,-0.504 0.229,-0.779 -0.643,-0.643 -1.286,-1.285 -1.79,-1.882 z"
           inkscape:connector-curvature="0" />
        <path
           style="fill:#000100"
           id="path99"
           d="m 719.327,309.979 c 1.193,0 2.111,-0.964 2.111,-2.111 0,-1.146 -0.964,-2.109 -2.111,-2.109 -1.192,0 -2.11,0.964 -2.11,2.109 0,1.148 0.965,2.111 2.11,2.111 z m 0,-2.936 c 0.46,0 0.826,0.367 0.826,0.825 0,0.458 -0.366,0.826 -0.826,0.826 -0.458,0 -0.825,-0.368 -0.825,-0.826 0.046,-0.458 0.413,-0.825 0.825,-0.825 z"
           inkscape:connector-curvature="0" />
        <path
           style="fill:#000100"
           id="path101"
           d="m 724.972,305.62 c 1.193,0 2.111,-0.963 2.111,-2.111 0,-1.146 -0.964,-2.11 -2.111,-2.11 -1.193,0 -2.111,0.964 -2.111,2.11 -10e-4,1.148 0.917,2.111 2.111,2.111 z m 0,-2.937 c 0.458,0 0.826,0.368 0.826,0.826 0,0.46 -0.368,0.828 -0.826,0.828 -0.459,0 -0.826,-0.368 -0.826,-0.828 0,-0.458 0.367,-0.826 0.826,-0.826 z"
           inkscape:connector-curvature="0" />
        <path
           style="fill:#000100"
           id="path103"
           d="m 709.691,307.318 c 1.652,0 2.982,-1.33 2.982,-2.981 0,-1.654 -1.33,-2.984 -2.982,-2.984 -1.652,0 -2.983,1.33 -2.983,2.984 0,1.651 1.377,2.981 2.983,2.981 z m 0,-4.589 c 0.918,0 1.652,0.734 1.652,1.652 0,0.918 -0.734,1.652 -1.652,1.652 -0.918,0 -1.606,-0.78 -1.606,-1.696 0,-0.92 0.733,-1.608 1.606,-1.608 z"
           inkscape:connector-curvature="0" />
      </g>
      <g
         transform="matrix(1.8308231,0,0,1.8308231,-952.2709,-155.47142)"
         id="g105"
         class="cabeza">
        <path
           style="fill:#d9d9d9;stroke:#000000;stroke-width:0.73540002;stroke-miterlimit:10"
           id="path107"
           d="m 727.057,108.265 c -0.012,-0.887 0.425,-1.739 1.128,-2.235 0.196,-0.139 0.415,-0.255 0.567,-0.445 0.764,-0.945 -0.738,-1.624 -1.119,-2.268 -0.521,-0.877 -0.486,-2.052 0.121,-2.873 0.324,-0.439 0.777,-0.753 1.236,-1.033 0.247,-0.151 0.51,-0.305 0.67,-0.554 0.688,-1.066 -1.608,-1.929 -2.005,-2.642 -0.358,-0.645 -0.455,-1.458 -0.194,-2.151 0.271,-0.722 0.882,-1.243 1.511,-1.659 0.465,-0.307 1.018,-0.682 1.019,-1.255 10e-4,-0.255 -0.083,-0.493 -0.229,-0.712 -0.819,-1.233 -3.101,-2.915 -4.599,-1.909 -2.331,1.566 -2.708,16.087 -0.595,22.155 0.457,1.313 2.028,1.958 3.235,1.308 0.484,-0.261 0.816,-0.918 0.55,-1.414 -0.485,-0.907 -1.278,-1.086 -1.296,-2.313 m 8.391,-13.307 c 0.036,0.125 0.164,0.193 0.281,0.241 0.758,0.3 1.608,0.159 2.332,0.59 0.985,0.588 1.269,1.982 0.552,2.903 -0.472,0.605 -0.941,1.209 -1.413,1.813 -0.052,0.068 -0.106,0.139 -0.118,0.224 -0.037,0.256 0.29,0.383 0.539,0.394 0.452,0.02 0.907,-0.023 1.357,0.024 1.381,0.144 2.377,1.653 1.628,2.998 -0.146,0.262 -0.354,0.59 -0.179,0.833 0.186,0.258 0.575,0.111 0.84,-0.056 0.486,-0.307 1.08,-0.852 1.646,-1.096 0.086,-0.037 0.17,-0.066 0.253,-0.088 0.713,-0.184 1.274,0.301 1.885,0.618 0.525,0.274 1.098,-0.242 0.923,-0.825 -0.796,-2.667 -2.18,-5.118 -3.943,-7.215 -0.683,-0.81 -4.073,-5.044 -5.238,-3.449 -0.439,0.601 -1.021,1.089 -1.304,1.801 -0.037,0.093 -0.069,0.195 -0.041,0.29 m 7.145,16.664 c -0.155,-0.148 -0.314,-0.298 -0.512,-0.373 -0.683,-0.257 -1.473,0.446 -2.178,0.47 -1.473,0 -2.114,-1.321 -2.924,-2.395 -0.126,-0.168 -0.256,-0.339 -0.433,-0.449 -0.176,-0.109 -0.41,-0.144 -0.582,-0.029 -0.126,0.083 -0.197,0.227 -0.258,0.369 -0.006,0.015 -0.013,0.029 -0.019,0.044 -0.351,0.854 -0.647,1.731 -0.963,2.599 -0.303,0.833 0.288,1.724 1.145,1.724 0,0 4.335,-0.013 6.787,-0.038 0.607,-0.006 0.81,-0.596 0.578,-1.123 -0.138,-0.317 -0.393,-0.563 -0.641,-0.799 m 3.856,-3.784 c -0.354,-0.83 -1.424,-2.619 -2.417,-2.623 -0.137,0 -0.265,0.054 -0.388,0.116 -0.896,0.448 -1.644,1.285 -2.632,1.413 -1.749,0.227 -2.715,-1.705 -1.882,-3.18 0.105,-0.187 0.229,-0.419 0.119,-0.603 -0.083,-0.14 -0.262,-0.175 -0.419,-0.187 -0.714,-0.053 -1.463,0.082 -2.128,-0.194 -2.638,-1.091 -0.189,-3.58 0.649,-4.877 0.042,-0.064 0.083,-0.133 0.087,-0.21 0.01,-0.188 -0.192,-0.306 -0.366,-0.358 -0.755,-0.229 -1.601,-0.161 -2.284,-0.566 -0.952,-0.565 -1.25,-1.95 -0.587,-2.857 l 1.041,-1.423 c 0.41,-0.562 0.233,-1.374 -0.371,-1.693 -0.665,-0.351 -1.561,-0.665 -2.35,-0.906 -0.563,-0.171 -1.102,0.338 -0.998,0.939 l 0.01,0.057 c 0.22,1.301 -0.555,2.317 -1.557,2.988 -0.283,0.189 -0.584,0.363 -0.808,0.624 -0.225,0.261 -0.361,0.639 -0.243,0.967 0.092,0.257 0.316,0.433 0.537,0.583 0.655,0.444 1.396,0.796 1.888,1.428 1.22,1.569 -0.586,2.867 -1.745,3.646 -0.382,0.257 -0.806,0.605 -0.787,1.078 0.02,0.534 0.57,0.836 0.956,1.189 1.056,0.97 0.979,2.845 -0.118,3.746 -0.403,0.331 -0.964,0.593 -1.035,1.122 -0.063,0.47 0.309,0.87 0.65,1.185 0.711,0.656 0.94,1.624 0.646,2.579 -0.002,0.005 -0.004,0.011 -0.006,0.016 -0.346,1.092 0.643,1.941 1.725,1.678 0.578,-0.14 1.029,-0.611 1.24,-1.189 l 1.344,-3.695 c 0.297,-0.815 0.981,-1.369 1.82,-1.465 0.788,-0.089 1.557,0.308 2.038,0.963 l 1.251,1.703 c 0.166,0.224 0.451,0.313 0.706,0.22 l 1.1,-0.399 c 0.813,-0.295 1.718,-0.068 2.313,0.579 l 1.326,1.444 c 1.878,2.041 2.153,-2.723 1.675,-3.838 M 718.511,88.529 c -1.777,-1.152 -3.778,0.675 -4.599,1.909 -0.146,0.219 -0.229,0.457 -0.228,0.712 0,0.573 0.553,0.948 1.018,1.255 0.629,0.416 1.239,0.937 1.511,1.659 0.262,0.693 0.164,1.506 -0.194,2.151 -0.396,0.713 -2.691,1.576 -2.005,2.642 0.161,0.249 0.423,0.402 0.671,0.554 0.458,0.28 0.911,0.594 1.235,1.033 0.607,0.821 0.643,1.996 0.122,2.873 -0.382,0.644 -1.884,1.323 -1.12,2.268 0.152,0.189 0.371,0.306 0.568,0.445 0.702,0.496 1.14,1.349 1.127,2.235 -0.019,1.228 -0.812,1.406 -1.297,2.313 -0.266,0.496 0.066,1.153 0.551,1.414 1.206,0.65 2.777,0.005 3.234,-1.308 2.115,-6.068 1.158,-21.019 -0.594,-22.155 m -19.888,15.828 c 0.609,-0.317 1.172,-0.802 1.884,-0.618 0.083,0.021 0.168,0.051 0.254,0.088 0.565,0.245 1.16,0.789 1.646,1.096 0.264,0.167 0.653,0.314 0.839,0.056 0.175,-0.244 -0.031,-0.571 -0.178,-0.833 -0.749,-1.344 0.246,-2.854 1.627,-2.998 0.451,-0.047 0.906,-0.004 1.358,-0.024 0.248,-0.011 0.575,-0.138 0.539,-0.394 -0.013,-0.085 -0.067,-0.156 -0.119,-0.224 -0.471,-0.604 -0.941,-1.208 -1.412,-1.813 -0.718,-0.921 -0.434,-2.315 0.551,-2.903 0.724,-0.431 1.575,-0.29 2.333,-0.59 0.117,-0.048 0.244,-0.116 0.281,-0.241 0.027,-0.095 -0.005,-0.197 -0.041,-0.29 -0.284,-0.711 -0.865,-1.2 -1.304,-1.801 -1.166,-1.595 -4.556,2.64 -5.238,3.449 -1.765,2.097 -3.147,4.548 -3.944,7.215 -0.175,0.583 0.398,1.099 0.924,0.825 m 9.362,4.903 c -0.006,-0.015 -0.012,-0.029 -0.019,-0.044 -0.06,-0.143 -0.131,-0.286 -0.257,-0.369 -0.173,-0.115 -0.407,-0.08 -0.582,0.029 -0.177,0.11 -0.307,0.281 -0.434,0.449 -0.81,1.074 -1.451,2.395 -2.923,2.395 -0.706,-0.023 -1.496,-0.727 -2.178,-0.47 -0.197,0.075 -0.357,0.225 -0.512,0.373 -0.248,0.236 -0.503,0.482 -0.644,0.8 -0.23,0.526 -0.029,1.117 0.578,1.123 2.452,0.025 6.787,0.038 6.787,0.038 0.856,0 1.448,-0.891 1.146,-1.724 -0.313,-0.869 -0.611,-1.747 -0.962,-2.6 m 7.068,-1.204 c 0.063,0.47 -0.31,0.87 -0.65,1.185 -0.711,0.656 -0.94,1.624 -0.646,2.579 0.001,0.005 0.003,0.011 0.005,0.016 0.347,1.092 -0.642,1.941 -1.724,1.678 -0.578,-0.14 -1.03,-0.611 -1.241,-1.189 l -1.344,-3.695 c -0.296,-0.815 -0.981,-1.369 -1.82,-1.465 -0.788,-0.089 -1.557,0.308 -2.038,0.963 l -1.252,1.703 c -0.165,0.224 -0.449,0.313 -0.705,0.22 l -1.099,-0.399 c -0.814,-0.295 -1.719,-0.068 -2.313,0.579 l -1.326,1.444 c -1.878,2.043 -2.151,-2.721 -1.675,-3.835 0.355,-0.83 1.424,-2.619 2.418,-2.623 0.136,0 0.265,0.054 0.387,0.116 0.896,0.448 1.645,1.285 2.632,1.413 1.75,0.227 2.716,-1.705 1.883,-3.18 -0.105,-0.187 -0.229,-0.419 -0.12,-0.603 0.083,-0.14 0.262,-0.175 0.419,-0.187 0.715,-0.053 1.462,0.082 2.128,-0.194 2.639,-1.091 0.189,-3.58 -0.648,-4.877 -0.043,-0.064 -0.084,-0.133 -0.088,-0.21 -0.01,-0.188 0.193,-0.306 0.366,-0.358 0.755,-0.229 1.602,-0.161 2.285,-0.566 0.952,-0.565 1.249,-1.95 0.586,-2.857 l -1.041,-1.423 c -0.41,-0.562 -0.233,-1.374 0.372,-1.693 0.664,-0.351 1.561,-0.665 2.35,-0.906 0.563,-0.171 1.102,0.338 0.997,0.939 l -0.01,0.057 c -0.22,1.301 0.556,2.317 1.558,2.988 0.283,0.189 0.584,0.363 0.808,0.624 0.225,0.261 0.36,0.639 0.242,0.967 -0.092,0.257 -0.316,0.433 -0.537,0.583 -0.655,0.444 -1.396,0.796 -1.888,1.428 -1.219,1.569 0.586,2.867 1.745,3.646 0.382,0.257 0.806,0.605 0.788,1.078 -0.021,0.534 -0.571,0.836 -0.956,1.189 -1.058,0.97 -0.98,2.845 0.118,3.746 0.402,0.328 0.961,0.59 1.034,1.119"
           stroke-miterlimit="10"
           inkscape:connector-curvature="0" />
      </g>
    </g>
    <g
       id="men">
      <path
         style="fill:#868686;stroke:#000000;stroke-width:1.34232152;stroke-miterlimit:10"
         id="path433"
         d="m 623.27863,527.32413 c 3.92422,3.20922 10.3445,0.34923 11.06868,-2.8508 0.715,-3.20922 -15.7079,-13.55555 -19.98318,-18.92447 -4.28447,-5.34503 -8.92185,-9.99527 -18.5587,-14.63081 -9.63501,-4.63738 -7.8466,-7.13528 -12.13475,-14.63448 -4.28447,-7.49737 -8.5616,-28.19739 -14.63448,-40.3303 -6.06003,-12.13475 -6.4258,-21.77344 -13.92317,-49.25216 -7.48266,-27.48055 -19.61925,-46.39032 -19.61925,-46.39032 -9.9971,-10.71027 -12.84607,-24.98266 -12.84607,-24.98266 -0.715,-13.925 -8.92553,-45.3169 -8.92553,-45.3169 -2.8508,-7.13528 -2.14499,-17.13238 -2.14499,-17.13238 2.49238,-12.84975 2.14499,-30.68243 2.14499,-30.68243 -8.92001,-69.94667 -67.08482,-55.67611 -67.08482,-55.67611 -12.49685,-0.3621 -40.68321,-23.55634 -44.60559,-29.26897 -3.92605,-5.7108 0.715,-29.96743 0.715,-29.96743 3.56028,-2.86183 3.92422,-18.909764 3.92422,-18.909764 8.55976,1.075254 9.27475,-14.98555 9.27475,-14.98555 3.57132,-19.63028 -6.06553,-15.709738 -6.06553,-15.709738 C 416.30416,-2.2688558 369.20252,-0.48595585 369.20252,-0.48595585 317.81272,0.94036413 329.5817,59.829366 329.5817,59.829366 c -8.55976,-11.774492 -6.42028,13.210002 -6.42028,13.210002 0.71132,14.987388 9.99527,15.696872 9.99527,15.696872 -1.07525,3.924218 3.2129,18.19477 3.2129,18.19477 3.21105,4.28815 2.13764,32.469 2.13764,32.469 -22.82296,20.87279 -47.91406,26.52293 -47.91406,26.52293 -11.44916,-2.06228 -30.66956,0.68375 -50.36417,20.36733 -19.68909,19.70014 -12.59793,51.96512 -12.13842,59.7529 0.46135,7.78594 0.46135,22.20721 -1.37302,27.47136 -1.8362,5.25864 -5.72182,28.61831 -6.63716,37.31592 -0.90983,8.69761 -11.44549,25.18484 -15.57005,31.59225 -4.12457,6.41293 -11.44916,18.30689 -13.73568,26.31891 -2.28653,8.01019 -8.23443,41.66656 -10.53382,51.27768 -2.28652,9.61111 -16.70963,45.09082 -18.99799,50.5884 -2.28836,5.50126 -10.29855,16.94674 -12.36267,18.77376 -2.0586,1.81966 -13.51144,10.53565 -15.11053,13.27249 -1.59542,2.74787 -11.89581,10.7599 -13.73385,12.36083 -1.8362,1.5991 -7.32275,6.63349 -10.53197,8.47337 -3.20003,1.8362 -1.60094,3.65954 1.59542,5.27518 3.21289,1.59909 11.91418,-1.15245 14.42678,-3.43898 2.52179,-2.28652 7.547,-6.18501 7.547,-6.18501 -0.91167,1.5991 -4.34697,15.79613 -7.09852,22.4333 -2.74971,6.63533 -11.44915,21.97009 -11.44915,21.97009 -4.12089,8.47337 0.22424,9.15712 0.22424,9.15712 2.52363,0.6911 5.94974,-2.06045 7.78594,-4.79729 1.82334,-2.74787 13.05009,-21.74585 13.73568,-22.43327 0.68927,-0.68376 2.52547,-3.66138 2.74971,-1.83621 0.22424,1.83621 -4.81015,16.25931 -6.41293,18.31974 -1.59909,2.06228 -6.85956,16.71331 -6.85956,16.71331 -5.0344,8.23626 1.1359,10.53198 1.1359,10.53198 5.96261,1.37485 10.76357,-12.82218 11.91235,-15.11054 1.13591,-2.28469 10.29671,-24.95691 11.22124,-25.86674 0.91167,-0.9135 1.82518,-0.6911 2.5126,0.45951 0.68559,1.15246 -2.06228,15.11236 -3.88745,18.32158 -1.82334,3.21106 -5.72366,19.46118 -5.72366,19.46118 -2.51077,5.03256 2.75154,7.09668 2.75154,7.09668 2.28653,0.2224 3.43163,-1.14694 5.25864,-3.65954 1.82517,-2.52547 11.67156,-37.08247 13.04825,-39.15761 1.37486,-2.06229 2.28653,-0.68743 2.28653,-0.68743 0.68559,3.21289 -0.46319,26.78392 -0.46319,26.78392 -1.8362,5.49758 3.66322,6.63533 3.66322,6.63533 4.12456,-0.91535 4.12456,-6.63533 4.12456,-6.63533 l 1.56234,-28.30766 c 0,0 6.08759,-6.08575 11.15691,-24.35772 5.07667,-18.2591 6.08943,-36.52923 17.25001,-59.87603 11.16059,-23.34312 27.39233,-50.73913 39.56752,-70.02202 12.18069,-19.28473 8.12046,-28.41979 13.19713,-43.64245 5.07483,-15.22082 21.30658,-56.8304 21.30658,-56.8304 2.04022,5.07667 15.22081,59.87971 14.20805,74.07674 -1.00908,14.20806 -4.06207,59.87603 -11.15874,79.14973 -7.09484,19.28105 -11.15875,64.9527 -16.23175,101.48193 -5.07483,36.52738 14.20806,138.00931 14.20806,147.13335 0,9.1369 4.06207,33.49462 1.0146,49.7282 -3.05299,16.22991 -8.12598,47.68798 -11.16242,65.95811 -3.04931,18.26462 12.17151,109.59321 13.20081,123.80127 1.01092,14.20622 0,37.54566 -2.02736,40.59314 -2.02736,3.05298 -7.10219,14.20989 -17.24634,26.3814 -10.14783,12.1862 -30.44532,21.3103 -30.44532,21.3103 -19.28472,15.2226 9.13691,21.3102 9.13691,21.3102 15.22265,19.2847 42.61682,-12.177 44.65521,-16.2354 2.02184,-4.0602 19.28289,-8.1205 29.43255,-13.1953 10.14599,-5.073 4.06024,-16.23543 0,-26.38326 -4.06574,-10.14782 -1.0146,-16.23358 -1.0146,-29.42336 0,-13.18243 4.0584,-65.95627 13.19898,-86.25376 9.13322,-20.29749 6.08759,-55.81396 4.06207,-71.03662 -2.02552,-15.22266 -3.03461,-33.49462 -3.03461,-33.49462 10.14599,-14.19336 12.16784,-59.86133 12.16784,-59.86133 15.22265,-61.89971 26.38324,-163.38346 26.38324,-163.38346 l 7.09851,0 c -4.06023,37.54197 21.31025,107.56766 21.31025,127.86148 0,20.29749 11.15875,60.89063 14.20806,84.22088 3.04931,23.34496 7.11138,24.35772 0,54.80304 -7.10035,30.44348 11.15875,81.18628 13.19714,96.39607 2.02736,15.21898 5.07851,33.48911 4.06023,39.5767 -1.01276,6.08944 -4.06023,19.28473 -1.01276,27.39233 3.04931,8.12782 -2.02368,18.27197 -2.02368,18.27197 -8.12598,9.13504 3.04747,23.34314 10.14782,24.35584 7.09852,1.0146 18.26094,7.0986 18.26094,7.0986 3.04564,15.2245 20.29565,20.2993 20.29565,20.2993 13.20082,8.1094 21.31025,1.0091 21.31025,1.0091 38.56762,-5.0767 1.01276,-32.4672 -9.1369,-39.5804 -10.14782,-7.0967 -22.32117,-26.38141 -24.35956,-37.542 -2.02368,-11.15691 -5.07299,-30.44164 3.04931,-59.86684 8.11311,-29.43072 11.16059,-93.35228 10.14783,-111.62241 -1.01276,-18.25726 -7.09852,-54.80303 -7.09852,-70.01282 0,-15.22266 -5.07483,-35.51647 4.05104,-72.04938 9.13691,-36.53107 7.09484,-92.34135 6.0876,-118.72642 -1.01093,-26.3814 -18.26094,-88.28112 -18.26094,-101.47825 0,-13.20081 -6.0876,-50.74097 -6.0876,-50.74097 -7.09667,-36.53291 12.17335,-91.33043 12.17335,-91.33043 2.03471,3.04931 21.30841,54.79752 21.30841,54.79752 -2.03655,20.29566 28.4198,69.01478 28.4198,69.01478 9.1369,15.21898 33.39353,61.96037 33.39353,61.96037 1.09915,4.12824 3.98487,14.04079 4.40027,20.50702 0.41172,6.47542 1.78658,8.81341 3.29745,16.37143 1.51454,7.57641 9.7747,24.3614 10.73599,27.11111 0.96314,2.74604 2.33616,7.29519 2.06413,12.10902 -0.27387,4.81197 1.37117,21.05842 1.37117,21.05842 0.69111,5.08586 5.24026,5.65014 5.24026,5.65014 2.47584,-0.27571 2.74971,-2.47768 2.74971,-2.47768 1.23884,-1.78842 0.13601,-29.03185 0.13601,-29.99314 0,-0.96313 2.06045,-2.33615 1.92443,-0.13969 -0.13785,2.20197 12.11269,35.78297 12.11269,35.78297 1.37302,7.71242 6.74929,6.88714 6.74929,6.88714 3.02174,-0.9613 2.74787,-6.06186 1.92259,-7.28968 -0.82344,-1.237 -7.43487,-31.92859 -7.98812,-35.50174 -0.54774,-3.57499 1.5127,-2.33615 1.5127,-2.33615 l 14.72271,30.67872 c 2.61554,9.50084 8.12415,8.12415 8.12415,8.12415 4.26241,-2.20014 -3.43714,-18.15801 -3.43714,-18.15801 l -5.23474,-21.74401 c 0,0 8.53219,11.28373 11.97116,18.70756 3.4353,7.43856 8.38698,6.63533 8.38698,6.63533 0.0882,-0.0643 0.16359,-0.12315 0.23527,-0.18932 4.47563,-4.65575 -15.60497,-44.82797 -17.35846,-48.33679 -1.78658,-3.54925 8.21237,1.08629 12.12372,4.29918 z"
         stroke-miterlimit="10"
         inkscape:connector-curvature="0" />
      <g
         transform="matrix(1.8380412,0,0,1.8380412,-958.87053,-160.00772)"
         id="g435">
        <g
           id="g437">
          <path
             style="fill:#d9d9d9;stroke:#000000;stroke-width:0.63810003;stroke-miterlimit:10"
             id="path439"
             d="m 742.849,202.165 c -7.395,-10.8 -12.573,-11.473 -12.573,-2.924 0,5.52 0,17.791 0.003,25.793 -1.792,-2.015 -4.761,-5.732 -4.761,-8.248 0,-3.599 0,-6.074 0,-6.074 l -2.7,0 -2.702,0 c 0,0 0,2.474 0,6.074 0,1.833 -1.577,4.304 -3.127,6.292 10e-4,-7.931 10e-4,-18.752 10e-4,-23.837 0,-8.549 -5.179,-7.875 -12.573,2.924 -7.395,10.796 -21.594,39.141 -20.235,62.538 1.359,23.395 11.658,26.993 13.876,23.169 2.219,-3.822 6.508,-5.85 12.867,-7.198 6.36,-1.35 6.064,-11.021 6.064,-17.996 0,-6.29 0,-25.751 0,-29.506 2.078,-4.627 4.683,-9.861 5.829,-9.861 1.483,0 5.394,8.735 7.461,13.604 0,7.063 0,20.692 0,25.763 0,6.975 -0.296,16.646 6.063,17.996 6.361,1.352 10.649,3.376 12.867,7.198 2.22,3.824 12.52,0.226 13.877,-23.169 1.354,-23.397 -12.842,-51.741 -20.237,-62.538 z"
             stroke-miterlimit="10"
             inkscape:connector-curvature="0" />
        </g>
        <g
           id="g441">
          <rect
             style="fill:#d9d9d9;stroke:#000000;stroke-width:0.63810003;stroke-miterlimit:10"
             id="rect443"
             height="3.0009999"
             width="5.4000001"
             stroke-miterlimit="10"
             y="204.711"
             x="720.11499" />
        </g>
        <g
           id="g445">
          <rect
             style="fill:#d9d9d9;stroke:#000000;stroke-width:0.63810003;stroke-miterlimit:10"
             id="rect447"
             height="3.0009999"
             width="5.4000001"
             stroke-miterlimit="10"
             y="198.709"
             x="720.11499" />
        </g>
        <g
           id="g449">
          <rect
             style="fill:#d9d9d9;stroke:#000000;stroke-width:0.63810003;stroke-miterlimit:10"
             id="rect451"
             height="3"
             width="5.4000001"
             stroke-miterlimit="10"
             y="192.707"
             x="720.11499" />
        </g>
        <g
           id="g453">
          <rect
             style="fill:#d9d9d9;stroke:#000000;stroke-width:0.63810003;stroke-miterlimit:10"
             id="rect455"
             height="3"
             width="5.4000001"
             stroke-miterlimit="10"
             y="186.70599"
             x="720.11499" />
        </g>
        <g
           id="g457">
          <rect
             style="fill:#d9d9d9;stroke:#000000;stroke-width:0.63810003;stroke-miterlimit:10"
             id="rect459"
             height="3.0009999"
             width="5.4000001"
             stroke-miterlimit="10"
             y="180.703"
             x="720.11499" />
        </g>
      </g>
      <g
         transform="matrix(1.8380412,0,0,1.8380412,-958.87053,-160.00772)"
         id="g461">
        <path
           style="fill:#000100"
           id="path463"
           d="m 752.682,240.477 c -3.663,-1.065 -6.864,-2.937 -10.524,-4.003 -1.875,0.703 -3.941,2.401 -3.658,3.718 0.962,0.452 1.919,0.789 1.03,2.167 -1.266,2.131 -2.53,4.26 -3.794,6.391 -1.979,0.649 -2.111,-0.081 -0.4,-2.198 1.603,-2.047 1.668,-3.289 0.199,-2.571 -1.078,0.082 -1.892,0.239 -1.744,-0.905 2.494,-5.513 5.77,-7.007 8.674,-8.798 3.503,-1.023 2.434,-3.06 -0.391,-3.877 -8.05,3.398 -12.142,9.177 -14.674,15.039 -1.73,-0.198 -3.116,-0.284 -4.847,-0.483 0.066,-2.262 0.135,-4.526 0.2,-6.79 -2.695,-1.921 -4.042,-0.872 -5.194,0.597 -0.057,14.368 -2.568,15.222 -4.594,18.774 -0.412,2.144 0.807,2.593 3.772,2.276 2.567,-2.169 3.894,-3.963 4.618,-7.668 0.296,-2.181 1.362,-2.979 3.194,-2.395 1.409,0.29 1.741,0.89 0.998,1.797 -5.426,8.034 1.817,14.068 3.782,18.012 4.926,5.432 11.121,4.278 16.046,-5.031 4.396,-6.903 6.12,-13.775 -1.199,-18.489 -1.199,1.664 -2.281,3.56 -3.479,5.224 -1.541,0.415 -2.006,-0.016 -1.398,-0.829 1.731,-2.465 3.231,-5.502 4.963,-7.966 1.997,0.532 3.993,1.527 5.99,2.059 2.635,-0.084 3.177,-1.512 2.43,-4.051 z"
           inkscape:connector-curvature="0" />
        <path
           style="fill:#000100"
           id="path465"
           d="m 731.257,235.684 c 0.932,-0.932 2.325,-2.095 3.259,-3.027 -0.494,-1.259 -1.871,-1.942 -2.976,-2.281 -1.938,0.844 -2.804,1.845 -2.597,2.996 -0.035,1.039 0.814,1.886 2.314,2.312 z"
           inkscape:connector-curvature="0" />
      </g>
      <g
         transform="matrix(1.8380412,0,0,1.8380412,-958.87053,-160.00772)"
         id="g467">
        <g
           id="g469">
          <path
             style="fill:#000100"
             id="path471"
             d="m 773.724,190.278 c 0.295,-0.237 0.59,-0.237 0.884,-0.237 0.293,0 0.662,0 0.957,0.237 0.588,0.238 1.177,0.942 1.767,1.65 1.103,1.646 2.059,3.999 2.942,6.59 0.885,2.586 1.619,5.411 2.355,8.471 0.737,3.062 1.398,6.12 1.987,9.415 2.502,12.708 4.416,26.595 7.064,38.832 0.664,3.063 1.399,5.886 2.136,8.71 0.809,2.588 1.692,5.18 2.648,7.062 1.914,4.002 4.195,6.121 6.478,8.002 1.103,0.942 2.281,2.117 3.385,3.295 1.104,1.413 2.208,3.059 3.164,4.944 1.987,3.998 3.606,9.884 4.711,16.709 l 0,0 0,0 c 0,1.647 0,3.294 0.074,4.944 0.074,1.644 0.146,3.293 0.294,4.941 0.294,3.293 0.736,6.354 1.252,9.179 0.588,2.824 1.25,5.412 2.134,7.295 0.883,1.882 1.84,3.294 2.796,4.474 0.957,1.177 1.987,2.118 2.943,3.531 0.957,1.411 1.841,3.057 2.65,5.409 1.619,4.474 2.871,9.889 3.828,16.007 -0.957,-5.886 -2.209,-11.533 -3.828,-15.77 -0.81,-2.117 -1.693,-4.001 -2.65,-5.178 -0.956,-1.412 -1.986,-2.118 -2.943,-3.293 -0.956,-1.179 -1.987,-2.355 -2.871,-4.473 -0.882,-1.884 -1.619,-4.473 -2.207,-7.297 -0.588,-2.824 -1.031,-5.886 -1.323,-9.179 -0.148,-1.647 -0.222,-3.298 -0.297,-4.942 -0.072,-2.12 -0.072,-3.766 -0.072,-5.415 l 0,0.237 c -1.104,-6.591 -2.649,-12.238 -4.637,-16.242 -0.956,-1.881 -2.062,-3.531 -3.091,-4.941 -1.104,-1.176 -2.209,-2.354 -3.312,-3.294 -2.282,-1.884 -4.563,-4.003 -6.624,-8.002 -2.062,-4.003 -3.606,-9.888 -5.005,-16.006 -2.722,-12.239 -4.71,-26.127 -7.139,-38.599 -0.589,-3.06 -1.252,-6.121 -1.988,-9.181 -0.735,-2.824 -1.472,-5.647 -2.281,-8.235 -0.809,-2.354 -1.766,-4.709 -2.796,-6.121 -0.516,-0.708 -1.031,-1.175 -1.619,-1.413 -0.295,-0.234 -0.516,0 -0.81,-0.234 -0.295,0.234 -0.59,0.234 -0.883,0.234 l 0,0 c -0.221,0 -0.368,-0.469 -0.368,-1.176 -0.074,-0.468 0.073,-0.94 0.295,-0.94 l 0,0 z"
             inkscape:connector-curvature="0" />
        </g>
        <g
           id="g473">
          <path
             style="fill:#000100"
             id="path475"
             d="m 778.611,194.072 c 0,0 0.13,0.321 0.292,0.857 0.131,0.317 0.392,0.964 0.784,1.401 0.394,0.44 0.855,0.251 1.48,0.069 0.595,-0.392 1.451,-0.67 2.237,0.209 0.787,0.879 1.535,2.596 2.184,4.732 0.649,2.136 1.231,4.374 1.812,7.138 1.129,5.315 2.089,11.15 3.184,16.78 0.514,2.865 1.16,5.527 1.739,8.29 0.58,2.764 1.161,5.529 1.51,8.387 0.224,1.483 0.282,2.961 0.408,4.335 0.126,1.375 0.383,2.546 0.707,3.611 0.684,1.821 1.604,1.97 2.331,1.37 3.068,-1.329 5.113,-2.396 5.113,-2.396 0,0 -2.045,1.066 -5.147,2.711 -0.727,0.6 -1.715,0.552 -2.429,-1.479 -0.391,-0.967 -0.582,-2.238 -0.808,-3.723 -0.156,-1.584 -0.281,-2.961 -0.474,-4.231 -0.349,-2.859 -0.93,-5.625 -1.544,-8.073 -0.646,-2.661 -1.226,-5.426 -1.806,-8.189 -1.094,-5.629 -2.121,-11.361 -3.218,-16.464 -0.548,-2.553 -1.195,-4.688 -1.813,-6.612 -0.617,-1.922 -1.335,-3.43 -1.988,-3.986 -0.69,-0.768 -1.35,-0.272 -1.978,-0.091 -0.594,0.393 -1.219,0.575 -1.776,0.129 -0.558,-0.447 -0.851,-1.302 -1.078,-1.736 -0.163,-0.532 -0.294,-0.856 -0.294,-0.856 -0.162,-0.533 -0.16,-1.057 -0.024,-1.79 0.137,-0.73 0.368,-0.825 0.596,-0.393 -0.065,0.1 -0.065,0.1 0,0 z"
             inkscape:connector-curvature="0" />
        </g>
        <g
           id="g477">
          <path
             style="fill:#000100"
             id="path479"
             d="m 785.007,199.106 c 0,0 0.164,0.007 0.328,0.013 0.233,-0.094 0.66,0.033 1.054,0.469 0.459,0.337 0.949,0.889 1.504,1.862 0.556,0.971 1.076,2.261 1.629,3.76 1.138,3.211 2.204,7.574 3.004,12.876 0.798,5.301 1.364,11.222 2.494,16.009 0.55,2.553 1.131,4.792 1.746,7.239 0.614,2.45 1.195,4.688 1.712,7.026 1.165,4.479 2.2,8.629 3.072,12.249 0.453,1.915 0.84,3.405 1.229,4.899 0.387,1.492 0.778,2.457 1.172,2.897 0.393,0.437 0.789,-0.174 0.857,-0.801 0.068,-0.629 0.072,-1.158 0.072,-1.158 0,0 -0.004,0.529 -0.072,1.158 -0.068,0.627 -0.434,1.452 -0.857,0.801 -0.394,-0.44 -0.816,-1.616 -1.172,-2.897 -0.39,-1.494 -0.776,-2.984 -1.296,-4.796 -0.939,-3.518 -2.041,-7.57 -3.205,-12.044 -0.582,-2.239 -1.164,-4.475 -1.778,-6.927 -0.583,-2.236 -1.263,-4.584 -1.813,-7.137 -0.614,-2.449 -1.028,-5.206 -1.444,-7.961 -0.415,-2.756 -0.764,-5.614 -1.214,-8.056 -0.834,-4.985 -1.869,-9.139 -2.975,-12.137 -0.553,-1.501 -1.041,-2.577 -1.563,-3.337 -0.524,-0.76 -0.948,-1.413 -1.311,-1.64 -0.361,-0.227 -0.623,-0.343 -0.854,-0.25 -0.231,0.096 -0.328,-0.015 -0.328,-0.015 -0.23,0.097 -0.394,-0.439 -0.392,-0.964 0.003,-0.526 0.17,-1.046 0.401,-1.138 l 0,0 z"
             inkscape:connector-curvature="0" />
        </g>
      </g>
      <g
         transform="matrix(1.8380412,0,0,1.8380412,-958.87053,-160.00772)"
         id="g481">
        <path
           style="fill:#d9d9d9;stroke:#000000;stroke-width:0.63810003;stroke-miterlimit:10"
           id="path483"
           d="m 726.802,109.033 c -0.01,-0.83 0.341,-1.628 0.907,-2.093 0.158,-0.13 0.334,-0.238 0.457,-0.416 0.615,-0.885 -0.596,-1.52 -0.9,-2.123 -0.42,-0.821 -0.392,-1.92 0.097,-2.689 0.261,-0.411 0.626,-0.704 0.995,-0.967 0.198,-0.142 0.409,-0.286 0.539,-0.518 0.553,-0.998 -1.294,-1.806 -1.612,-2.473 -0.288,-0.604 -0.366,-1.363 -0.156,-2.013 0.218,-0.675 0.708,-1.164 1.215,-1.553 0.374,-0.288 0.818,-0.638 0.819,-1.175 0,-0.238 -0.067,-0.461 -0.186,-0.667 -0.657,-1.155 -2.493,-2.728 -3.698,-1.787 -1.875,1.466 -2.177,15.058 -0.478,20.738 0.368,1.23 1.631,1.833 2.603,1.224 0.39,-0.244 0.656,-0.859 0.442,-1.324 -0.391,-0.848 -1.029,-1.015 -1.044,-2.164 m 6.75,-12.454 c 0.03,0.117 0.132,0.181 0.227,0.226 0.609,0.28 1.293,0.149 1.876,0.551 0.793,0.552 1.021,1.856 0.443,2.719 -0.379,0.565 -0.757,1.131 -1.136,1.697 -0.043,0.063 -0.086,0.13 -0.096,0.209 -0.029,0.239 0.233,0.359 0.434,0.369 0.363,0.02 0.73,-0.021 1.093,0.022 1.109,0.134 1.91,1.548 1.31,2.806 -0.118,0.245 -0.285,0.552 -0.144,0.78 0.149,0.241 0.462,0.104 0.676,-0.052 0.39,-0.288 0.866,-0.797 1.323,-1.026 0.067,-0.034 0.135,-0.063 0.203,-0.083 0.574,-0.171 1.025,0.283 1.516,0.58 0.423,0.256 0.884,-0.227 0.743,-0.773 -0.642,-2.496 -1.754,-4.79 -3.172,-6.753 -0.55,-0.758 -3.276,-4.721 -4.214,-3.228 -0.354,0.563 -0.82,1.019 -1.049,1.686 -0.029,0.085 -0.056,0.181 -0.033,0.27 m 5.746,15.597 c -0.124,-0.138 -0.252,-0.279 -0.412,-0.349 -0.547,-0.24 -1.183,0.417 -1.749,0.44 -1.187,0 -1.702,-1.237 -2.354,-2.242 -0.102,-0.157 -0.206,-0.317 -0.347,-0.419 -0.142,-0.102 -0.33,-0.135 -0.469,-0.028 -0.102,0.078 -0.159,0.213 -0.207,0.346 -0.005,0.014 -0.01,0.027 -0.016,0.041 -0.283,0.799 -0.52,1.621 -0.774,2.433 -0.244,0.779 0.23,1.613 0.921,1.613 0,0 3.486,-0.012 5.459,-0.035 0.489,-0.006 0.65,-0.558 0.465,-1.051 -0.112,-0.298 -0.317,-0.528 -0.517,-0.749 m 3.103,-3.542 c -0.286,-0.776 -1.146,-2.451 -1.943,-2.455 -0.11,0 -0.216,0.051 -0.313,0.108 -0.721,0.419 -1.322,1.203 -2.117,1.323 -1.406,0.212 -2.183,-1.596 -1.513,-2.977 0.084,-0.174 0.184,-0.393 0.096,-0.564 -0.067,-0.131 -0.211,-0.164 -0.338,-0.174 -0.573,-0.05 -1.176,0.076 -1.71,-0.182 -2.123,-1.022 -0.154,-3.351 0.521,-4.564 0.034,-0.061 0.066,-0.125 0.07,-0.197 0.008,-0.177 -0.155,-0.287 -0.295,-0.335 -0.607,-0.214 -1.288,-0.15 -1.838,-0.53 -0.766,-0.529 -1.005,-1.825 -0.472,-2.674 l 0.837,-1.332 c 0.33,-0.526 0.188,-1.286 -0.298,-1.584 -0.535,-0.329 -1.255,-0.622 -1.89,-0.848 -0.453,-0.16 -0.887,0.316 -0.803,0.879 l 0.008,0.054 c 0.177,1.217 -0.447,2.169 -1.253,2.797 -0.228,0.177 -0.469,0.339 -0.649,0.584 -0.18,0.244 -0.29,0.598 -0.196,0.905 0.075,0.241 0.255,0.405 0.433,0.545 0.527,0.416 1.123,0.745 1.52,1.337 0.979,1.468 -0.473,2.683 -1.404,3.412 -0.308,0.24 -0.647,0.565 -0.634,1.008 0.016,0.5 0.46,0.783 0.77,1.113 0.849,0.908 0.787,2.663 -0.095,3.506 -0.325,0.31 -0.776,0.555 -0.832,1.05 -0.052,0.439 0.248,0.813 0.521,1.108 0.572,0.613 0.757,1.52 0.519,2.414 0,0.005 -0.002,0.011 -0.003,0.015 -0.279,1.023 0.517,1.818 1.387,1.571 0.464,-0.131 0.827,-0.572 0.998,-1.112 l 1.08,-3.459 c 0.238,-0.763 0.79,-1.281 1.466,-1.371 0.632,-0.084 1.25,0.288 1.638,0.901 l 1.008,1.594 c 0.132,0.21 0.362,0.292 0.567,0.206 l 0.885,-0.374 c 0.653,-0.275 1.38,-0.064 1.859,0.542 l 1.067,1.352 c 1.509,1.911 1.729,-2.548 1.346,-3.592 M 719.928,90.56 c -1.43,-1.079 -3.04,0.631 -3.698,1.787 -0.117,0.205 -0.185,0.428 -0.184,0.667 0,0.537 0.445,0.887 0.819,1.175 0.505,0.389 0.997,0.877 1.215,1.553 0.21,0.65 0.132,1.409 -0.156,2.013 -0.318,0.667 -2.165,1.475 -1.613,2.473 0.129,0.232 0.34,0.376 0.541,0.518 0.367,0.263 0.732,0.556 0.991,0.967 0.49,0.769 0.518,1.868 0.101,2.689 -0.309,0.604 -1.516,1.238 -0.903,2.123 0.124,0.178 0.3,0.286 0.459,0.416 0.565,0.465 0.917,1.263 0.906,2.093 -0.015,1.149 -0.652,1.316 -1.044,2.165 -0.213,0.465 0.054,1.08 0.444,1.324 0.969,0.609 2.232,0.006 2.602,-1.224 1.699,-5.681 0.93,-19.675 -0.48,-20.739 m -15.996,14.816 c 0.49,-0.297 0.941,-0.751 1.514,-0.58 0.068,0.021 0.137,0.049 0.205,0.083 0.455,0.229 0.932,0.738 1.323,1.026 0.212,0.157 0.526,0.293 0.675,0.052 0.141,-0.228 -0.025,-0.535 -0.143,-0.78 -0.603,-1.258 0.198,-2.672 1.31,-2.806 0.362,-0.044 0.729,-0.003 1.093,-0.022 0.2,-0.01 0.462,-0.129 0.434,-0.369 -0.011,-0.08 -0.053,-0.146 -0.097,-0.209 -0.378,-0.566 -0.758,-1.131 -1.135,-1.697 -0.579,-0.862 -0.349,-2.167 0.442,-2.719 0.582,-0.402 1.267,-0.271 1.878,-0.551 0.093,-0.045 0.195,-0.109 0.226,-0.226 0.021,-0.088 -0.004,-0.185 -0.033,-0.271 -0.229,-0.667 -0.695,-1.124 -1.049,-1.686 -0.938,-1.493 -3.665,2.47 -4.213,3.228 -1.419,1.963 -2.532,4.257 -3.174,6.753 -0.14,0.547 0.321,1.03 0.744,0.774 m 7.53,4.589 c -0.005,-0.014 -0.009,-0.027 -0.015,-0.041 -0.048,-0.133 -0.106,-0.268 -0.206,-0.346 -0.14,-0.107 -0.328,-0.074 -0.469,0.028 -0.143,0.102 -0.247,0.263 -0.349,0.419 -0.651,1.005 -1.168,2.242 -2.353,2.242 -0.567,-0.022 -1.202,-0.68 -1.751,-0.44 -0.158,0.07 -0.287,0.211 -0.413,0.349 -0.198,0.221 -0.403,0.452 -0.515,0.75 -0.187,0.493 -0.025,1.045 0.464,1.051 1.972,0.023 5.46,0.035 5.46,0.035 0.688,0 1.164,-0.834 0.92,-1.613 -0.253,-0.814 -0.491,-1.635 -0.773,-2.434 m 5.684,-1.127 c 0.051,0.439 -0.249,0.813 -0.524,1.108 -0.57,0.613 -0.755,1.52 -0.519,2.414 0.001,0.005 0.002,0.011 0.004,0.015 0.281,1.023 -0.516,1.818 -1.385,1.571 -0.466,-0.131 -0.83,-0.572 -0.999,-1.112 l -1.081,-3.459 c -0.238,-0.763 -0.789,-1.281 -1.464,-1.371 -0.634,-0.084 -1.252,0.288 -1.64,0.901 l -1.008,1.594 c -0.133,0.21 -0.361,0.292 -0.567,0.206 l -0.884,-0.374 c -0.653,-0.275 -1.381,-0.064 -1.859,0.542 l -1.067,1.352 c -1.511,1.912 -1.73,-2.547 -1.347,-3.59 0.285,-0.776 1.145,-2.451 1.944,-2.455 0.109,0 0.213,0.051 0.312,0.108 0.721,0.419 1.322,1.203 2.115,1.323 1.408,0.212 2.186,-1.596 1.516,-2.977 -0.085,-0.174 -0.185,-0.393 -0.097,-0.564 0.066,-0.131 0.212,-0.164 0.337,-0.174 0.576,-0.05 1.177,0.076 1.713,-0.182 2.123,-1.022 0.151,-3.351 -0.522,-4.564 -0.034,-0.061 -0.067,-0.125 -0.07,-0.197 -0.008,-0.177 0.155,-0.287 0.294,-0.335 0.609,-0.214 1.289,-0.15 1.839,-0.53 0.765,-0.529 1.005,-1.825 0.471,-2.674 l -0.836,-1.332 c -0.331,-0.526 -0.188,-1.286 0.297,-1.584 0.536,-0.329 1.256,-0.622 1.891,-0.848 0.453,-0.16 0.886,0.316 0.802,0.879 l -0.007,0.054 c -0.178,1.217 0.447,2.169 1.253,2.797 0.228,0.177 0.469,0.339 0.649,0.584 0.18,0.244 0.29,0.598 0.195,0.905 -0.074,0.241 -0.255,0.405 -0.434,0.545 -0.526,0.416 -1.122,0.745 -1.518,1.337 -0.979,1.468 0.471,2.683 1.404,3.412 0.308,0.24 0.648,0.565 0.634,1.008 -0.017,0.5 -0.459,0.783 -0.77,1.113 -0.852,0.908 -0.789,2.663 0.095,3.506 0.326,0.308 0.775,0.553 0.833,1.048"
           stroke-miterlimit="10"
           inkscape:connector-curvature="0" />
      </g>
      <g
         transform="matrix(1.8380412,0,0,1.8380412,-958.87053,-160.00772)"
         id="g485">
        <ellipse
           style="fill:#ffffff;stroke:#000000;stroke-width:0.73030001;stroke-miterlimit:10"
           id="ellipse487"
           ry="23.549999"
           rx="24.099001"
           cy="374.13501"
           cx="723.54498"
           stroke-miterlimit="10" />
        <ellipse
           style="opacity:0.5;fill:#008daa;stroke:#000000;stroke-width:0.73030001;stroke-miterlimit:10"
           id="ellipse489"
           ry="23.549999"
           rx="24.099001"
           cy="374.13501"
           cx="723.54498"
           stroke-miterlimit="10" />
      </g>
      <g
         id="g491"
         transform="matrix(1.8380412,0,0,1.8380412,-958.87053,-2035.4756)">
        <path
           style="fill:#1d1d1b"
           id="path493"
           d="m 728.239,1381.796 c -1.357,0.057 -2.94,1.152 -4.033,2.915 -1.252,2.022 -1.421,4.255 -0.507,5.422 -1.157,0.604 -2.023,1.417 -2.509,2.474 -0.604,1.315 -0.671,2.9 -0.305,4.607 0.653,3.045 -0.65,5.471 -2.982,6.269 -1.294,0.442 -2.141,0.703 -2.778,1.153 -0.637,0.448 -0.967,1.128 -1.118,2.065 -0.044,0.284 0.175,0.584 0.459,0.627 0.283,0.044 0.581,-0.173 0.626,-0.458 0.132,-0.816 0.244,-1.073 0.644,-1.354 0.4,-0.281 1.204,-0.57 2.507,-1.017 2.865,-0.98 4.438,-4.056 3.694,-7.522 -0.333,-1.547 -0.242,-2.853 0.237,-3.896 0.445,-0.971 1.257,-1.719 2.507,-2.236 1.47,0.458 3.533,-0.693 4.846,-2.813 1.456,-2.352 1.436,-5.019 -0.034,-5.93 -0.367,-0.228 -0.803,-0.324 -1.254,-0.306 z m -11.453,1.762 c -1.109,0.016 -2.401,0.863 -3.252,2.236 -0.981,1.584 -1.056,3.357 -0.272,4.303 -0.027,0.662 -0.227,1.182 -0.576,1.627 -0.41,0.525 -1.023,0.944 -1.863,1.221 -2.035,0.671 -3.343,2.462 -3.219,4.335 0.053,0.808 0.084,1.279 0.034,1.526 -0.05,0.247 -0.13,0.344 -0.508,0.645 -0.449,0.352 0.233,1.208 0.677,0.847 0.465,-0.368 0.778,-0.783 0.882,-1.288 0.101,-0.505 0.053,-0.999 0,-1.796 -0.089,-1.333 0.843,-2.682 2.474,-3.22 0.992,-0.325 1.8,-0.859 2.372,-1.591 0.375,-0.482 0.596,-1.054 0.711,-1.694 1.192,0.265 2.751,-0.593 3.727,-2.169 1.136,-1.832 1.051,-3.954 -0.169,-4.709 -0.307,-0.19 -0.648,-0.277 -1.018,-0.273 z m 15.893,9.319 c -1.111,0.015 -2.403,0.861 -3.255,2.236 -0.96,1.551 -1.037,3.309 -0.304,4.269 -0.518,0.396 -0.921,0.869 -1.187,1.424 -0.4,0.838 -0.521,1.813 -0.373,2.846 0.245,1.698 -0.529,3.111 -1.761,3.628 -0.738,0.306 -1.221,0.496 -1.627,0.813 -0.406,0.314 -0.658,0.774 -0.78,1.354 -0.063,0.284 0.14,0.602 0.423,0.665 0.286,0.061 0.601,-0.142 0.662,-0.428 0.099,-0.472 0.14,-0.59 0.339,-0.745 0.199,-0.153 0.643,-0.332 1.39,-0.644 1.733,-0.724 2.744,-2.69 2.44,-4.812 -0.127,-0.875 -0.018,-1.602 0.27,-2.202 0.246,-0.514 0.635,-0.93 1.221,-1.254 1.193,0.266 2.751,-0.593 3.727,-2.168 1.135,-1.832 1.084,-3.955 -0.136,-4.71 -0.305,-0.189 -0.681,-0.277 -1.049,-0.272 z"
           inkscape:connector-curvature="0" />
      </g>
    </g>
  </g>
</svg>
